<svg width="25" height="25" viewBox="0 0 25 25" fill="none" xmlns="http://www.w3.org/2000/svg">
<path d="M13.5 22.5H5.5C3.5 22.5 2.5 21.5 2.5 19.5V11.5C2.5 9.5 3.5 8.5 5.5 8.5H10.5V19.5C10.5 21.5 11.5 22.5 13.5 22.5Z" stroke="#04070E" stroke-width="1.5" stroke-miterlimit="10" stroke-linecap="round" stroke-linejoin="round"/>
<path d="M10.61 4.5C10.53 4.8 10.5 5.13 10.5 5.5V8.5H5.5V6.5C5.5 5.4 6.4 4.5 7.5 4.5H10.61Z" stroke="#04070E" stroke-width="1.5" stroke-miterlimit="10" stroke-linecap="round" stroke-linejoin="round"/>
<path d="M14.5 8.5V13.5" stroke="#04070E" stroke-width="1.5" stroke-miterlimit="10" stroke-linecap="round" stroke-linejoin="round"/>
<path d="M18.5 8.5V13.5" stroke="#04070E" stroke-width="1.5" stroke-miterlimit="10" stroke-linecap="round" stroke-linejoin="round"/>
<path d="M17.5 17.5H15.5C14.95 17.5 14.5 17.95 14.5 18.5V22.5H18.5V18.5C18.5 17.95 18.05 17.5 17.5 17.5Z" stroke="#04070E" stroke-width="1.5" stroke-miterlimit="10" stroke-linecap="round" stroke-linejoin="round"/>
<path d="M6.5 13.5V17.5" stroke="#04070E" stroke-width="1.5" stroke-miterlimit="10" stroke-linecap="round" stroke-linejoin="round"/>
<path d="M10.5 19.5V5.5C10.5 3.5 11.5 2.5 13.5 2.5H19.5C21.5 2.5 22.5 3.5 22.5 5.5V19.5C22.5 21.5 21.5 22.5 19.5 22.5H13.5C11.5 22.5 10.5 21.5 10.5 19.5Z" stroke="#04070E" stroke-width="1.5" stroke-miterlimit="10" stroke-linecap="round" stroke-linejoin="round"/>
</svg>
