<svg width="25" height="25" viewBox="0 0 25 25" fill="none" xmlns="http://www.w3.org/2000/svg">
<path d="M5.5 10.5C4.4 10.5 3.5 11.4 3.5 12.5C3.5 13.6 4.4 14.5 5.5 14.5C6.6 14.5 7.5 13.6 7.5 12.5C7.5 11.4 6.6 10.5 5.5 10.5Z" stroke="#04070E" stroke-width="1.5"/>
<path d="M19.5 10.5C18.4 10.5 17.5 11.4 17.5 12.5C17.5 13.6 18.4 14.5 19.5 14.5C20.6 14.5 21.5 13.6 21.5 12.5C21.5 11.4 20.6 10.5 19.5 10.5Z" stroke="#04070E" stroke-width="1.5"/>
<path d="M12.5 10.5C11.4 10.5 10.5 11.4 10.5 12.5C10.5 13.6 11.4 14.5 12.5 14.5C13.6 14.5 14.5 13.6 14.5 12.5C14.5 11.4 13.6 10.5 12.5 10.5Z" stroke="#04070E" stroke-width="1.5"/>
</svg>
