<svg width="25" height="24" viewBox="0 0 25 24" fill="none" xmlns="http://www.w3.org/2000/svg">
<path d="M17.5001 20.9999H7.50006C3.50006 20.9999 2.50006 19.9999 2.50006 15.9999V7.99994C2.50006 3.99994 3.50006 2.99994 7.50006 2.99994H17.5001C21.5001 2.99994 22.5001 3.99994 22.5001 7.99994V15.9999C22.5001 19.9999 21.5001 20.9999 17.5001 20.9999Z" stroke="#FD1B51" stroke-width="1.5" stroke-linecap="round" stroke-linejoin="round"/>
<path d="M14.5001 7.99994H19.5001" stroke="#FD1B51" stroke-width="1.5" stroke-linecap="round" stroke-linejoin="round"/>
<path d="M15.5001 11.9999H19.5001" stroke="#FD1B51" stroke-width="1.5" stroke-linecap="round" stroke-linejoin="round"/>
<path d="M17.5001 15.9999H19.5001" stroke="#FD1B51" stroke-width="1.5" stroke-linecap="round" stroke-linejoin="round"/>
<path d="M9.00015 11.29C9.99979 11.29 10.8102 10.4797 10.8102 9.48004C10.8102 8.48041 9.99979 7.67004 9.00015 7.67004C8.00052 7.67004 7.19016 8.48041 7.19016 9.48004C7.19016 10.4797 8.00052 11.29 9.00015 11.29Z" stroke="#FD1B51" stroke-width="1.5" stroke-linecap="round" stroke-linejoin="round"/>
<path d="M12.5001 16.3295C12.3601 14.8795 11.2101 13.7395 9.76006 13.6095C9.26006 13.5595 8.75006 13.5595 8.24006 13.6095C6.79006 13.7495 5.64006 14.8795 5.50006 16.3295" stroke="#FD1B51" stroke-width="1.5" stroke-linecap="round" stroke-linejoin="round"/>
</svg>
