<svg width="14" height="14" viewBox="0 0 14 14" fill="none" xmlns="http://www.w3.org/2000/svg">
<mask id="path-1-inside-1_483_3866" fill="white">
<path d="M7.1925 12.4483C6.55667 12.4483 5.92084 12.2091 5.43667 11.725C4.46834 10.7566 4.46834 9.18746 5.43667 8.21913L6.88334 6.77829C7.0525 6.60913 7.3325 6.60913 7.50167 6.77829C7.67084 6.94746 7.67084 7.22746 7.50167 7.39663L6.055 8.83746C5.43084 9.46163 5.43084 10.4825 6.055 11.1066C6.67917 11.7308 7.7 11.7308 8.32417 11.1066L10.5933 8.83746C11.2817 8.14913 11.6608 7.23329 11.6608 6.25913C11.6608 5.28496 11.2817 4.36913 10.5933 3.68079C9.17 2.25746 6.86 2.25746 5.43667 3.68079L2.96334 6.15413C2.38584 6.73163 2.065 7.50163 2.065 8.31829C2.065 9.13496 2.38584 9.90496 2.96334 10.4825C3.1325 10.6516 3.1325 10.9316 2.96334 11.1008C2.79417 11.27 2.51417 11.27 2.345 11.1008C1.60417 10.3541 1.19 9.36829 1.19 8.31829C1.19 7.26829 1.59834 6.27663 2.345 5.53579L4.81834 3.06246C6.58 1.30079 9.45 1.30079 11.2117 3.06246C12.0633 3.91413 12.5358 5.05163 12.5358 6.25913C12.5358 7.46663 12.0633 8.60413 11.2117 9.45579L8.9425 11.725C8.45834 12.2091 7.82834 12.4483 7.1925 12.4483Z"/>
</mask>
<path d="M7.1925 12.4483C6.55667 12.4483 5.92084 12.2091 5.43667 11.725C4.46834 10.7566 4.46834 9.18746 5.43667 8.21913L6.88334 6.77829C7.0525 6.60913 7.3325 6.60913 7.50167 6.77829C7.67084 6.94746 7.67084 7.22746 7.50167 7.39663L6.055 8.83746C5.43084 9.46163 5.43084 10.4825 6.055 11.1066C6.67917 11.7308 7.7 11.7308 8.32417 11.1066L10.5933 8.83746C11.2817 8.14913 11.6608 7.23329 11.6608 6.25913C11.6608 5.28496 11.2817 4.36913 10.5933 3.68079C9.17 2.25746 6.86 2.25746 5.43667 3.68079L2.96334 6.15413C2.38584 6.73163 2.065 7.50163 2.065 8.31829C2.065 9.13496 2.38584 9.90496 2.96334 10.4825C3.1325 10.6516 3.1325 10.9316 2.96334 11.1008C2.79417 11.27 2.51417 11.27 2.345 11.1008C1.60417 10.3541 1.19 9.36829 1.19 8.31829C1.19 7.26829 1.59834 6.27663 2.345 5.53579L4.81834 3.06246C6.58 1.30079 9.45 1.30079 11.2117 3.06246C12.0633 3.91413 12.5358 5.05163 12.5358 6.25913C12.5358 7.46663 12.0633 8.60413 11.2117 9.45579L8.9425 11.725C8.45834 12.2091 7.82834 12.4483 7.1925 12.4483Z" fill="#292D32"/>
<path d="M5.43667 8.21913L4.73099 7.51059L4.72956 7.51202L5.43667 8.21913ZM6.88334 6.77829L7.58901 7.48683L7.59044 7.4854L6.88334 6.77829ZM7.50167 7.39663L8.20735 8.10516L8.20878 8.10373L7.50167 7.39663ZM6.055 8.83746L5.34932 8.12893L5.3479 8.13035L6.055 8.83746ZM8.32417 11.1066L9.03128 11.8137H9.03128L8.32417 11.1066ZM10.5933 8.83746L9.88623 8.13035L10.5933 8.83746ZM5.43667 3.68079L4.72956 2.97369V2.97369L5.43667 3.68079ZM2.96334 6.15413L3.67044 6.86123L2.96334 6.15413ZM2.345 11.1008L1.63512 11.8051L1.6379 11.8079L2.345 11.1008ZM2.345 5.53579L3.04934 6.24567L3.05211 6.2429L2.345 5.53579ZM4.81834 3.06246L5.52544 3.76957V3.76957L4.81834 3.06246ZM7.1925 12.4483V11.4483C6.80714 11.4483 6.43023 11.3043 6.14378 11.0179L5.43667 11.725L4.72956 12.4321C5.41144 13.1139 6.30619 13.4483 7.1925 13.4483V12.4483ZM5.43667 11.725L6.14378 11.0179C5.56597 10.44 5.56597 9.50404 6.14378 8.92623L5.43667 8.21913L4.72956 7.51202C3.3707 8.87088 3.3707 11.0732 4.72956 12.4321L5.43667 11.725ZM5.43667 8.21913L6.14235 8.92766L7.58901 7.48683L6.88334 6.77829L6.17766 6.06976L4.73099 7.51059L5.43667 8.21913ZM6.88334 6.77829L7.59044 7.4854C7.36908 7.70676 7.01592 7.70676 6.79456 7.4854L7.50167 6.77829L8.20878 6.07119C7.64908 5.5115 6.73592 5.5115 6.17623 6.07119L6.88334 6.77829ZM7.50167 6.77829L6.79456 7.4854C6.5732 7.26404 6.5732 6.91088 6.79456 6.68952L7.50167 7.39663L8.20878 8.10373C8.76847 7.54404 8.76847 6.63088 8.20878 6.07119L7.50167 6.77829ZM7.50167 7.39663L6.79599 6.68809L5.34933 8.12893L6.055 8.83746L6.76068 9.54599L8.20735 8.10516L7.50167 7.39663ZM6.055 8.83746L5.3479 8.13035C4.3332 9.14504 4.3332 10.799 5.3479 11.8137L6.055 11.1066L6.76211 10.3995C6.52847 10.1659 6.52847 9.77821 6.76211 9.54457L6.055 8.83746ZM6.055 11.1066L5.3479 11.8137C6.36259 12.8284 8.01658 12.8284 9.03128 11.8137L8.32417 11.1066L7.61706 10.3995C7.38342 10.6332 6.99575 10.6332 6.76211 10.3995L6.055 11.1066ZM8.32417 11.1066L9.03128 11.8137L11.3004 9.54457L10.5933 8.83746L9.88623 8.13035L7.61706 10.3995L8.32417 11.1066ZM10.5933 8.83746L11.3004 9.54457C12.1765 8.66853 12.6608 7.49828 12.6608 6.25913H11.6608H10.6608C10.6608 6.96831 10.3869 7.62972 9.88623 8.13035L10.5933 8.83746ZM11.6608 6.25913H12.6608C12.6608 5.01998 12.1765 3.84972 11.3004 2.97369L10.5933 3.68079L9.88623 4.3879C10.3869 4.88853 10.6608 5.54994 10.6608 6.25913H11.6608ZM10.5933 3.68079L11.3004 2.97369C9.48658 1.15983 6.54342 1.15983 4.72956 2.97369L5.43667 3.68079L6.14378 4.3879C7.17658 3.35509 8.85342 3.35509 9.88623 4.3879L10.5933 3.68079ZM5.43667 3.68079L4.72956 2.97369L2.25623 5.44702L2.96334 6.15413L3.67044 6.86123L6.14378 4.3879L5.43667 3.68079ZM2.96334 6.15413L2.25623 5.44702C1.49232 6.21093 1.065 7.23482 1.065 8.31829H2.065H3.065C3.065 7.76843 3.27935 7.25233 3.67044 6.86123L2.96334 6.15413ZM2.065 8.31829H1.065C1.065 9.40177 1.49232 10.4257 2.25623 11.1896L2.96334 10.4825L3.67044 9.77535C3.27935 9.38426 3.065 8.86815 3.065 8.31829H2.065ZM2.96334 10.4825L2.25623 11.1896C2.03487 10.9682 2.03487 10.615 2.25623 10.3937L2.96334 11.1008L3.67044 11.8079C4.23013 11.2482 4.23013 10.335 3.67044 9.77535L2.96334 10.4825ZM2.96334 11.1008L2.25623 10.3937C2.47759 10.1723 2.83075 10.1723 3.05211 10.3937L2.345 11.1008L1.6379 11.8079C2.19759 12.3676 3.11075 12.3676 3.67044 11.8079L2.96334 11.1008ZM2.345 11.1008L3.05488 10.3965C2.49597 9.83316 2.19 9.09894 2.19 8.31829H1.19H0.190002C0.190002 9.63765 0.712363 10.8751 1.63513 11.8051L2.345 11.1008ZM1.19 8.31829H2.19C2.19 7.53204 2.4939 6.79676 3.04933 6.24567L2.345 5.53579L1.64067 4.82592C0.702772 5.75649 0.190002 7.00455 0.190002 8.31829H1.19ZM2.345 5.53579L3.05211 6.2429L5.52544 3.76957L4.81834 3.06246L4.11123 2.35535L1.6379 4.82869L2.345 5.53579ZM4.81834 3.06246L5.52544 3.76957C6.89658 2.39843 9.13342 2.39843 10.5046 3.76957L11.2117 3.06246L11.9188 2.35535C9.76658 0.203163 6.26342 0.203163 4.11123 2.35535L4.81834 3.06246ZM11.2117 3.06246L10.5046 3.76957C11.169 4.43398 11.5358 5.31724 11.5358 6.25913H12.5358H13.5358C13.5358 4.78601 12.9577 3.39428 11.9188 2.35535L11.2117 3.06246ZM12.5358 6.25913H11.5358C11.5358 7.20101 11.169 8.08428 10.5046 8.74869L11.2117 9.45579L11.9188 10.1629C12.9577 9.12398 13.5358 7.73224 13.5358 6.25913H12.5358ZM11.2117 9.45579L10.5046 8.74869L8.2354 11.0179L8.9425 11.725L9.64961 12.4321L11.9188 10.1629L11.2117 9.45579ZM8.9425 11.725L8.2354 11.0179C7.94725 11.306 7.57536 11.4483 7.1925 11.4483V12.4483V13.4483C8.08131 13.4483 8.96943 13.1123 9.64961 12.4321L8.9425 11.725Z" fill="#999999" mask="url(#path-1-inside-1_483_3866)"/>
</svg>
