<svg width="14" height="14" viewBox="0 0 14 14" fill="none" xmlns="http://www.w3.org/2000/svg">
<g clip-path="url(#clip0_0_12369)">
<path d="M5.66556 5.36426L5.66068 5.36816L5.67728 5.37305L6.67239 5.62207L6.01419 6.41016L6.02786 6.42188L6.00833 6.40527L6.01028 6.42285L6.07962 7.44629L5.12747 7.06348L5.1304 7.05762L5.1138 7.06348L4.16068 7.44727L4.23196 6.42285L4.21341 6.42188L4.2388 6.42285L4.22806 6.41016L3.56888 5.62207L4.56497 5.37305L4.56693 5.37988L4.57571 5.36523L5.12064 4.49414L5.66556 5.36426Z" fill="#04070E" stroke="#04070E" stroke-width="0.0364583"/>
<path d="M5.12079 4.06787C5.22216 4.06787 5.31823 4.10657 5.39032 4.17432L5.4538 4.25244L5.92548 5.00537L5.92059 5.00928L5.93817 5.01416L6.80048 5.23096C6.89897 5.25568 6.98338 5.31644 7.0368 5.3999L7.07977 5.49072C7.11106 5.58729 7.10359 5.6912 7.06122 5.78076L7.00653 5.86475L6.43622 6.54736L6.44989 6.55908L6.43036 6.54248L6.43134 6.56006L6.49286 7.44775C6.49979 7.54904 6.46682 7.64755 6.40399 7.72412L6.33075 7.79346C6.24854 7.85296 6.14771 7.87741 6.0495 7.86475L5.95282 7.83936L5.12762 7.50732L5.13055 7.50146L5.11395 7.50732L4.28876 7.83936C4.24139 7.85834 4.19087 7.86768 4.1413 7.86768C4.07994 7.86762 4.01896 7.85379 3.96356 7.82568L3.90985 7.79346C3.82762 7.73367 3.77292 7.64485 3.75458 7.54736L3.74872 7.44775L3.80927 6.56006L3.79169 6.55908L3.81708 6.56006L3.80536 6.54736L3.23505 5.86475C3.1698 5.7867 3.13727 5.68747 3.14325 5.58838L3.1618 5.49072C3.19317 5.39418 3.26048 5.31469 3.34735 5.26709L3.4411 5.23096L4.30341 5.01416L4.30536 5.021L4.31512 5.00635L4.78778 4.25244C4.85975 4.13764 4.98531 4.06787 5.12079 4.06787ZM5.10516 5.22607L4.89325 5.56396C4.85283 5.62843 4.79517 5.67955 4.72723 5.71143L4.65594 5.73682L4.26923 5.8335L4.24091 5.84131L4.25946 5.86377L4.51532 6.16943C4.56401 6.22774 4.59483 6.29822 4.60419 6.37256L4.60614 6.44873L4.5788 6.84619L4.57684 6.87549L4.60419 6.86475L4.9743 6.71533C5.04479 6.68709 5.12149 6.67975 5.19501 6.69385L5.26727 6.71533L5.63739 6.86475L5.66473 6.87549L5.66278 6.84619L5.63544 6.44873C5.63024 6.37261 5.64687 6.29679 5.68329 6.23096L5.72626 6.16943L5.98212 5.86377L6.00067 5.84131L5.97235 5.8335L5.58563 5.73682C5.51192 5.71831 5.44551 5.6792 5.39423 5.62451L5.34833 5.56396L5.13641 5.22607L5.12079 5.20166L5.10516 5.22607Z" fill="#04070E" stroke="#04070E" stroke-width="0.0364583"/>
<path d="M8.11646 4.85449H10.4631C10.6804 4.85449 10.8567 5.0307 10.8567 5.24805C10.8565 5.46524 10.6804 5.6416 10.4631 5.6416H8.11646C7.89927 5.6416 7.72308 5.46524 7.7229 5.24805C7.7229 5.0307 7.89913 4.85449 8.11646 4.85449Z" fill="#04070E" stroke="#04070E" stroke-width="0.0364583"/>
<path d="M9.63911 7.09942H8.11612C7.88875 7.09942 7.70435 6.91507 7.70435 6.68765C7.70435 6.46023 7.88873 6.27588 8.11612 6.27588H9.63911C9.86647 6.27588 10.0509 6.46023 10.0509 6.68765C10.0509 6.91507 9.86647 7.09942 9.63911 7.09942Z" fill="#04070E"/>
<path d="M5.12095 8.91113L5.6816 9.80527L6.70525 10.0622L6.0281 10.8717L6.10007 11.9247L5.12095 11.5308L4.14177 11.9247L4.21374 10.8717L3.53665 10.0622L4.56029 9.80527L5.12095 8.91113Z" fill="#04070E"/>
<path d="M6.0999 12.3366C6.04803 12.3366 5.99589 12.3268 5.94631 12.3069L5.1208 11.9749L4.29527 12.3069C4.1638 12.3598 4.01428 12.3413 3.8996 12.258C3.78492 12.1746 3.72113 12.0382 3.73081 11.8968L3.79151 11.0091L3.2206 10.3266C3.12969 10.2178 3.10106 10.0699 3.14483 9.93514C3.18864 9.80034 3.2987 9.69752 3.43621 9.66302L4.29923 9.44643L4.7719 8.69256C4.8472 8.57244 4.97903 8.49951 5.12078 8.49951C5.26253 8.49951 5.39435 8.57244 5.46965 8.69256L5.94232 9.44643L6.80529 9.66302C6.94277 9.69752 7.05283 9.80034 7.09666 9.93514C7.14044 10.0699 7.11181 10.2178 7.02089 10.3266L6.45001 11.0091L6.51071 11.8968C6.52039 12.0382 6.45665 12.1747 6.34192 12.258C6.2705 12.3099 6.1856 12.3366 6.0999 12.3366ZM4.27361 10.3019L4.52944 10.6077C4.59758 10.6893 4.6316 10.794 4.6244 10.9L4.59723 11.2978L4.96716 11.149C5.06579 11.1093 5.17585 11.1093 5.27445 11.149L5.64433 11.2978L5.61715 10.9C5.6099 10.794 5.64392 10.6893 5.71211 10.6077L5.96794 10.3019L5.58122 10.2049C5.47816 10.179 5.38905 10.1143 5.33258 10.0242L5.12078 9.68642L4.90897 10.0242C4.85251 10.1143 4.76342 10.179 4.66033 10.2049L4.27361 10.3019Z" fill="#04070E"/>
<path d="M10.4632 10.1102H8.11612C7.88875 10.1102 7.70435 9.92581 7.70435 9.69839C7.70435 9.47097 7.88872 9.28662 8.11612 9.28662H10.4632C10.6905 9.28662 10.8749 9.47097 10.8749 9.69839C10.8749 9.92581 10.6906 10.1102 10.4632 10.1102Z" fill="#04070E"/>
<path d="M9.63911 11.5496H8.11612C7.88875 11.5496 7.70435 11.3653 7.70435 11.1378C7.70435 10.9104 7.88873 10.7261 8.11612 10.7261H9.63911C9.86647 10.7261 10.0509 10.9104 10.0509 11.1378C10.0509 11.3653 9.86647 11.5496 9.63911 11.5496Z" fill="#04070E"/>
<path d="M4.73548 1.56592H1.85312V2.8823H4.73548V1.56592Z" fill="#04070E"/>
<path d="M12.1473 1.56592H9.26495V2.8823H12.1473V1.56592Z" fill="#04070E"/>
<path d="M8.85295 2.88236C8.85295 3.10978 9.03732 3.29413 9.26472 3.29413H12.1472C12.3745 3.29413 12.559 3.10978 12.559 2.88236V1.56598C12.559 1.33856 12.3746 1.15421 12.1472 1.15421H9.67649V0.41177C9.67646 0.184352 9.49208 0 9.26472 0H4.73528C4.50791 0 4.32351 0.184352 4.32351 0.41177V1.15423H1.85281C1.62545 1.15423 1.44104 1.33859 1.44104 1.566V2.88239V13.5883C1.44104 13.8157 1.62542 14 1.85281 14H12.1472C12.3745 14 12.559 13.8157 12.559 13.5883V5.24789C12.559 5.02048 12.3746 4.83612 12.1472 4.83612C11.9198 4.83612 11.7354 5.02048 11.7354 5.24789V13.1765H2.26458V3.29413H4.73528H7.63287C7.86023 3.29413 8.04464 3.10978 8.04464 2.88236C8.04464 2.65494 7.86026 2.47059 7.63287 2.47059H5.14705V1.56598V0.823539H8.85292V1.56598V2.88236H8.85295ZM2.26458 1.97775H4.32354V2.47059H2.26458V1.97775ZM11.7354 2.47059H9.67646V1.97775H11.7354V2.47059Z" fill="#04070E"/>
</g>
<defs>
<clipPath id="clip0_0_12369">
<rect width="14" height="14" fill="white"/>
</clipPath>
</defs>
</svg>
