<svg width="14" height="14" viewBox="0 0 14 14" fill="none" xmlns="http://www.w3.org/2000/svg">
<mask id="path-1-inside-1_325_7118" fill="white">
<path d="M5.53012 12.069C5.23846 12.069 5.03429 11.9698 4.91179 11.8765C4.67846 11.7073 4.31679 11.2698 4.54429 10.2898L4.87678 8.85483C4.90594 8.73233 4.84178 8.51066 4.75428 8.41733L3.59345 7.2565C2.98095 6.644 3.03345 6.11316 3.11512 5.85067C3.19678 5.58817 3.46511 5.12733 4.31678 4.9815L5.80429 4.7365C5.91513 4.719 6.09595 4.58483 6.14262 4.48567L6.96512 2.84066C7.36179 2.04733 7.88679 1.93066 8.16679 1.93066C8.44678 1.93066 8.97178 2.04733 9.36845 2.84066L10.191 4.48567C10.2435 4.58483 10.4184 4.719 10.5293 4.7365L12.0168 4.9815C12.8685 5.1215 13.1368 5.58817 13.2185 5.85067C13.3001 6.11316 13.3526 6.644 12.7401 7.2565L11.5793 8.41733C11.4918 8.50483 11.4276 8.73233 11.4568 8.85483L11.7893 10.2898C12.0168 11.2757 11.6551 11.7073 11.4218 11.8765C11.1884 12.0457 10.6693 12.2615 9.79429 11.7423L8.40012 10.914C8.28345 10.844 8.03844 10.844 7.92178 10.914L6.52762 11.7423C6.12512 11.9873 5.78679 12.069 5.53012 12.069ZM8.16679 2.80566C8.07345 2.80566 7.90428 2.91649 7.74678 3.2315L6.92428 4.8765C6.74928 5.23233 6.33512 5.53567 5.94429 5.59984L4.45679 5.84483C4.12429 5.90317 3.97262 6.02567 3.94346 6.119C3.91429 6.21234 3.96678 6.399 4.20595 6.63817L5.36679 7.799C5.66429 8.0965 5.82179 8.639 5.72846 9.04733L5.39595 10.4823C5.29679 10.8965 5.36094 11.1182 5.42511 11.1707C5.48928 11.2173 5.72261 11.2115 6.08428 10.9898L7.48428 10.1615C7.87511 9.92816 8.46429 9.92816 8.84929 10.1615L10.2435 10.9898C10.611 11.2057 10.8443 11.2173 10.9085 11.1707C10.9726 11.124 11.0368 10.9023 10.9376 10.4823L10.6051 9.04733C10.5118 8.63316 10.6634 8.0965 10.9668 7.799L12.1276 6.63817C12.3668 6.399 12.4193 6.2065 12.3901 6.119C12.3609 6.0315 12.2093 5.90317 11.8768 5.84483L10.3893 5.59984C9.99845 5.53567 9.58429 5.23233 9.40929 4.8765L8.58679 3.2315C8.42929 2.91649 8.26012 2.80566 8.16679 2.80566Z"/>
</mask>
<path d="M5.53012 12.069C5.23846 12.069 5.03429 11.9698 4.91179 11.8765C4.67846 11.7073 4.31679 11.2698 4.54429 10.2898L4.87678 8.85483C4.90594 8.73233 4.84178 8.51066 4.75428 8.41733L3.59345 7.2565C2.98095 6.644 3.03345 6.11316 3.11512 5.85067C3.19678 5.58817 3.46511 5.12733 4.31678 4.9815L5.80429 4.7365C5.91513 4.719 6.09595 4.58483 6.14262 4.48567L6.96512 2.84066C7.36179 2.04733 7.88679 1.93066 8.16679 1.93066C8.44678 1.93066 8.97178 2.04733 9.36845 2.84066L10.191 4.48567C10.2435 4.58483 10.4184 4.719 10.5293 4.7365L12.0168 4.9815C12.8685 5.1215 13.1368 5.58817 13.2185 5.85067C13.3001 6.11316 13.3526 6.644 12.7401 7.2565L11.5793 8.41733C11.4918 8.50483 11.4276 8.73233 11.4568 8.85483L11.7893 10.2898C12.0168 11.2757 11.6551 11.7073 11.4218 11.8765C11.1884 12.0457 10.6693 12.2615 9.79429 11.7423L8.40012 10.914C8.28345 10.844 8.03844 10.844 7.92178 10.914L6.52762 11.7423C6.12512 11.9873 5.78679 12.069 5.53012 12.069ZM8.16679 2.80566C8.07345 2.80566 7.90428 2.91649 7.74678 3.2315L6.92428 4.8765C6.74928 5.23233 6.33512 5.53567 5.94429 5.59984L4.45679 5.84483C4.12429 5.90317 3.97262 6.02567 3.94346 6.119C3.91429 6.21234 3.96678 6.399 4.20595 6.63817L5.36679 7.799C5.66429 8.0965 5.82179 8.639 5.72846 9.04733L5.39595 10.4823C5.29679 10.8965 5.36094 11.1182 5.42511 11.1707C5.48928 11.2173 5.72261 11.2115 6.08428 10.9898L7.48428 10.1615C7.87511 9.92816 8.46429 9.92816 8.84929 10.1615L10.2435 10.9898C10.611 11.2057 10.8443 11.2173 10.9085 11.1707C10.9726 11.124 11.0368 10.9023 10.9376 10.4823L10.6051 9.04733C10.5118 8.63316 10.6634 8.0965 10.9668 7.799L12.1276 6.63817C12.3668 6.399 12.4193 6.2065 12.3901 6.119C12.3609 6.0315 12.2093 5.90317 11.8768 5.84483L10.3893 5.59984C9.99845 5.53567 9.58429 5.23233 9.40929 4.8765L8.58679 3.2315C8.42929 2.91649 8.26012 2.80566 8.16679 2.80566Z" fill="#292D32"/>
<path d="M4.91179 11.8765L5.51784 11.0811L5.50838 11.0739L5.49876 11.0669L4.91179 11.8765ZM4.54429 10.2898L5.51839 10.516L5.51848 10.5156L4.54429 10.2898ZM4.87678 8.85483L3.90395 8.6232L3.90258 8.62911L4.87678 8.85483ZM4.75428 8.41733L5.48382 7.73339L5.47279 7.72162L5.46139 7.71022L4.75428 8.41733ZM3.59345 7.2565L2.88635 7.96361L3.59345 7.2565ZM4.31678 4.9815L4.15426 3.99477L4.14801 3.99584L4.31678 4.9815ZM5.80429 4.7365L5.64833 3.74871L5.64178 3.74979L5.80429 4.7365ZM6.14262 4.48567L5.24819 4.03845L5.24287 4.0491L5.2378 4.05987L6.14262 4.48567ZM10.191 4.48567L9.29653 4.93288L9.30172 4.94328L9.30716 4.95355L10.191 4.48567ZM10.5293 4.7365L10.6918 3.74977L10.6852 3.74873L10.5293 4.7365ZM12.0168 4.9815L11.8543 5.9682L11.8546 5.96825L12.0168 4.9815ZM11.4568 8.85483L12.431 8.62911L12.4296 8.62321L11.4568 8.85483ZM11.7893 10.2898L12.7637 10.065L12.7635 10.0641L11.7893 10.2898ZM9.79429 11.7423L9.2835 12.602L9.28402 12.6023L9.79429 11.7423ZM8.40012 10.914L7.88561 11.7715L7.88933 11.7737L8.40012 10.914ZM7.92178 10.914L8.43257 11.7737L8.43627 11.7715L7.92178 10.914ZM6.52762 11.7423L6.0168 10.8826L6.00767 10.8881L6.52762 11.7423ZM7.74678 3.2315L6.85236 2.78428V2.78428L7.74678 3.2315ZM6.92428 4.8765L6.02984 4.42928L6.02693 4.43518L6.92428 4.8765ZM5.94429 5.59984L5.78228 4.61305L5.78177 4.61313L5.94429 5.59984ZM4.45679 5.84483L4.29427 4.85808L4.28399 4.85988L4.45679 5.84483ZM4.20595 6.63817L3.49884 7.34528L3.49885 7.34528L4.20595 6.63817ZM5.36679 7.799L6.0739 7.09189L6.07389 7.09188L5.36679 7.799ZM5.72846 9.04733L6.70265 9.27306L6.70331 9.27015L5.72846 9.04733ZM5.39595 10.4823L6.36849 10.7152L6.37014 10.7081L5.39595 10.4823ZM5.42511 11.1707L4.79187 11.9446L4.81391 11.9627L4.83694 11.9794L5.42511 11.1707ZM6.08428 10.9898L5.57507 10.1292L5.56836 10.1332L5.56172 10.1372L6.08428 10.9898ZM7.48428 10.1615L7.99349 11.0221L7.99689 11.0201L7.48428 10.1615ZM8.84929 10.1615L8.33097 11.0167L8.3385 11.0212L8.84929 10.1615ZM10.2435 10.9898L9.73265 11.8495L9.73703 11.8521L10.2435 10.9898ZM10.9376 10.4823L9.96342 10.7081L9.96438 10.7121L10.9376 10.4823ZM10.6051 9.04733L9.62956 9.26717L9.63092 9.27306L10.6051 9.04733ZM10.9668 7.799L11.667 8.51297L11.6739 8.50611L10.9668 7.799ZM12.1276 6.63817L12.8347 7.34528L12.8347 7.34528L12.1276 6.63817ZM11.8768 5.84483L12.0496 4.85982L12.0393 4.85813L11.8768 5.84483ZM10.3893 5.59984L10.5518 4.61313L10.5513 4.61305L10.3893 5.59984ZM9.40929 4.8765L10.3067 4.43517L10.3037 4.42929L9.40929 4.8765ZM5.53012 12.069V11.069C5.51415 11.069 5.50383 11.0677 5.49842 11.0667C5.49298 11.0658 5.49094 11.065 5.49174 11.0653C5.49323 11.0658 5.50242 11.0693 5.51784 11.0811L4.91179 11.8765L4.30575 12.6719C4.58498 12.8847 4.99853 13.069 5.53012 13.069V12.069ZM4.91179 11.8765L5.49876 11.0669C5.51766 11.0806 5.50869 11.0834 5.49605 11.0483C5.48283 11.0116 5.43891 10.8583 5.51839 10.516L4.54429 10.2898L3.57019 10.0637C3.42218 10.7013 3.44534 11.2568 3.61441 11.7261C3.78406 12.1971 4.07259 12.5032 4.32483 12.6861L4.91179 11.8765ZM4.54429 10.2898L5.51848 10.5156L5.85097 9.08055L4.87678 8.85483L3.90258 8.62911L3.5701 10.0641L4.54429 10.2898ZM4.87678 8.85483L5.84958 9.08645C5.92111 8.78603 5.86537 8.50779 5.82145 8.35268C5.77605 8.19236 5.68039 7.94307 5.48382 7.73339L4.75428 8.41733L4.02474 9.10127C3.9602 9.03242 3.92958 8.97424 3.91955 8.95413C3.90692 8.9288 3.90067 8.91018 3.89711 8.8976C3.89362 8.88527 3.88842 8.86362 3.88568 8.83076C3.88351 8.80458 3.87897 8.72821 3.90397 8.62321L4.87678 8.85483ZM4.75428 8.41733L5.46139 7.71022L4.30056 6.54939L3.59345 7.2565L2.88635 7.96361L4.04717 9.12443L4.75428 8.41733ZM3.59345 7.2565L4.30056 6.54939C4.11123 6.36006 4.0777 6.23966 4.07064 6.20758C4.06264 6.1712 4.06851 6.15244 4.06997 6.14773L3.11512 5.85067L2.16026 5.5536C2.08006 5.81139 2.01884 6.1893 2.1173 6.63709C2.21671 7.08917 2.46318 7.54044 2.88635 7.96361L3.59345 7.2565ZM3.11512 5.85067L4.06997 6.14773C4.06771 6.15499 4.07016 6.13916 4.09811 6.11386C4.1229 6.09144 4.22119 6.01242 4.48556 5.96715L4.31678 4.9815L4.14801 3.99584C3.56071 4.0964 3.099 4.32072 2.75628 4.6308C2.41674 4.938 2.24418 5.28384 2.16026 5.5536L3.11512 5.85067ZM4.31678 4.9815L4.4793 5.9682L5.96681 5.7232L5.80429 4.7365L5.64178 3.74979L4.15427 3.99479L4.31678 4.9815ZM5.80429 4.7365L5.96025 5.72426C6.2516 5.67826 6.48014 5.52877 6.59318 5.44494C6.70363 5.36304 6.91882 5.18477 7.04744 4.91146L6.14262 4.48567L5.2378 4.05987C5.28789 3.95344 5.34404 3.8931 5.35781 3.87849C5.37858 3.85645 5.39378 3.84446 5.40186 3.83847C5.41002 3.83242 5.42529 3.82183 5.45112 3.80895C5.46865 3.80021 5.53835 3.7661 5.64833 3.74873L5.80429 4.7365ZM6.14262 4.48567L7.03705 4.93288L7.85955 3.28788L6.96512 2.84066L6.07069 2.39345L5.24819 4.03845L6.14262 4.48567ZM6.96512 2.84066L7.85955 3.28788C7.98517 3.03663 8.09282 2.96432 8.12078 2.9477C8.13861 2.9371 8.15031 2.93363 8.1557 2.9323C8.16205 2.93074 8.16607 2.93066 8.16679 2.93066V1.93066V0.930664C7.88585 0.930664 7.49945 0.990302 7.09863 1.22863C6.69492 1.46867 6.34173 1.85137 6.07069 2.39345L6.96512 2.84066ZM8.16679 1.93066V2.93066C8.1675 2.93066 8.17152 2.93074 8.17787 2.9323C8.18326 2.93363 8.19496 2.9371 8.21279 2.9477C8.24075 2.96432 8.3484 3.03663 8.47402 3.28788L9.36845 2.84066L10.2629 2.39345C9.99184 1.85137 9.63865 1.46867 9.23494 1.22863C8.83412 0.990302 8.44772 0.930664 8.16679 0.930664V1.93066ZM9.36845 2.84066L8.47402 3.28788L9.29653 4.93288L10.191 4.48567L11.0854 4.03845L10.2629 2.39345L9.36845 2.84066ZM10.191 4.48567L9.30716 4.95355C9.43268 5.19063 9.62215 5.35464 9.73824 5.4417C9.84794 5.52398 10.0772 5.6775 10.3733 5.72426L10.5293 4.7365L10.6852 3.74873C10.7974 3.76644 10.869 3.80172 10.8882 3.81143C10.9154 3.82516 10.931 3.83629 10.9382 3.84171C10.9458 3.84736 10.9579 3.85714 10.9745 3.87458C10.9859 3.88648 11.0303 3.93381 11.0747 4.01778L10.191 4.48567ZM10.5293 4.7365L10.3668 5.7232L11.8543 5.9682L12.0168 4.9815L12.1793 3.99479L10.6918 3.74979L10.5293 4.7365ZM12.0168 4.9815L11.8546 5.96825C12.1148 6.01103 12.2103 6.08885 12.2338 6.11021C12.2614 6.13526 12.265 6.15235 12.2636 6.14773L13.2185 5.85067L14.1733 5.5536C14.0902 5.28648 13.9188 4.93898 13.5789 4.63007C13.2349 4.31748 12.7704 4.09196 12.179 3.99474L12.0168 4.9815ZM13.2185 5.85067L12.2636 6.14773C12.2651 6.15244 12.2709 6.1712 12.2629 6.20758C12.2559 6.23966 12.2223 6.36006 12.033 6.54939L12.7401 7.2565L13.4472 7.96361C13.8704 7.54044 14.1169 7.08917 14.2163 6.63709C14.3147 6.1893 14.2535 5.81139 14.1733 5.5536L13.2185 5.85067ZM12.7401 7.2565L12.033 6.54939L10.8722 7.71022L11.5793 8.41733L12.2864 9.12443L13.4472 7.96361L12.7401 7.2565ZM11.5793 8.41733L10.8722 7.71022C10.6526 7.92984 10.5545 8.19942 10.5115 8.35271C10.4681 8.50748 10.4126 8.78664 10.484 9.08645L11.4568 8.85483L12.4296 8.62321C12.4547 8.72883 12.4499 8.80496 12.448 8.829C12.4454 8.86038 12.4405 8.881 12.4371 8.8932C12.4337 8.90535 12.427 8.92577 12.4126 8.95441C12.4018 8.97603 12.3653 9.04552 12.2864 9.12443L11.5793 8.41733ZM11.4568 8.85483L10.4826 9.08055L10.8151 10.5156L11.7893 10.2898L12.7635 10.0641L12.431 8.62911L11.4568 8.85483ZM11.7893 10.2898L10.8149 10.5147C10.895 10.8618 10.8504 11.0148 10.8378 11.0496C10.8263 11.0816 10.819 11.0784 10.8348 11.0669L11.4218 11.8765L12.0087 12.6861C12.2579 12.5055 12.5481 12.2018 12.7188 11.7292C12.8886 11.2594 12.9111 10.7037 12.7637 10.065L11.7893 10.2898ZM11.4218 11.8765L10.8348 11.0669C10.845 11.0595 10.8438 11.067 10.8106 11.0683C10.7738 11.0697 10.6138 11.0658 10.3046 10.8823L9.79429 11.7423L9.28402 12.6023C9.84978 12.938 10.3868 13.0858 10.8867 13.0668C11.3902 13.0477 11.7652 12.8627 12.0087 12.6861L11.4218 11.8765ZM9.79429 11.7423L10.3051 10.8826L8.9109 10.0543L8.40012 10.914L7.88933 11.7737L9.2835 12.602L9.79429 11.7423ZM8.40012 10.914L8.91461 10.0565C8.63657 9.88968 8.33909 9.8615 8.16095 9.8615C7.9828 9.8615 7.68533 9.88968 7.40728 10.0565L7.92178 10.914L8.43627 11.7715C8.34191 11.8281 8.26569 11.8467 8.23708 11.8528C8.20235 11.8602 8.1773 11.8615 8.16095 11.8615C8.14459 11.8615 8.11954 11.8602 8.08481 11.8528C8.0562 11.8467 7.97998 11.8281 7.88562 11.7715L8.40012 10.914ZM7.92178 10.914L7.41099 10.0543L6.01683 10.8826L6.52762 11.7423L7.03841 12.602L8.43257 11.7737L7.92178 10.914ZM6.52762 11.7423L6.00767 10.8881C5.73318 11.0552 5.57251 11.069 5.53012 11.069V12.069V13.069C6.00107 13.069 6.51706 12.9195 7.04757 12.5965L6.52762 11.7423ZM8.16679 2.80566V1.80566C7.76435 1.80566 7.46726 2.01561 7.30745 2.16117C7.1214 2.33064 6.97157 2.54586 6.85236 2.78428L7.74678 3.2315L8.64121 3.67871C8.6795 3.60213 8.693 3.60443 8.65424 3.63974C8.63449 3.65773 8.59148 3.69301 8.52173 3.72698C8.45684 3.75857 8.33417 3.80566 8.16679 3.80566V2.80566ZM7.74678 3.2315L6.85236 2.78428L6.02986 4.42929L6.92428 4.8765L7.81871 5.32371L8.64121 3.67871L7.74678 3.2315ZM6.92428 4.8765L6.02693 4.43518C6.02702 4.435 6.02526 4.43857 6.02061 4.44542C6.01599 4.45223 6.00916 4.46131 5.99971 4.47211C5.98031 4.49428 5.95405 4.5189 5.92225 4.54232C5.85161 4.59434 5.7951 4.61094 5.78228 4.61305L5.94429 5.59984L6.1063 6.58663C6.8108 6.47096 7.50174 5.96826 7.82163 5.31782L6.92428 4.8765ZM5.94429 5.59984L5.78177 4.61313L4.29428 4.85813L4.45679 5.84483L4.61931 6.83154L6.1068 6.58654L5.94429 5.59984ZM4.45679 5.84483L4.28399 4.85988C4.03235 4.90403 3.78813 4.98231 3.5741 5.10997C3.38285 5.22405 3.10628 5.44535 2.98898 5.82073L3.94346 6.119L4.89794 6.41728C4.85131 6.5665 4.77623 6.66661 4.72462 6.72262C4.67109 6.78071 4.62341 6.81284 4.59865 6.82761C4.55087 6.85611 4.54874 6.84398 4.62959 6.82979L4.45679 5.84483ZM3.94346 6.119L2.98898 5.82073C2.87361 6.18992 2.969 6.52553 3.06088 6.73141C3.16263 6.95944 3.31772 7.16416 3.49884 7.34528L4.20595 6.63817L4.91305 5.93106C4.85501 5.87301 4.86426 5.86482 4.88728 5.91638C4.89922 5.94314 4.91955 5.99671 4.92986 6.07442C4.93982 6.14955 4.94339 6.27182 4.89794 6.41728L3.94346 6.119ZM4.20595 6.63817L3.49885 7.34528L4.65969 8.50611L5.36679 7.799L6.07389 7.09188L4.91305 5.93106L4.20595 6.63817ZM5.36679 7.799L4.65969 8.5061C4.65922 8.50564 4.67118 8.51796 4.68816 8.54846C4.70474 8.57825 4.72112 8.61653 4.73373 8.66004C4.74635 8.70356 4.75285 8.74424 4.7547 8.77745C4.7566 8.8115 4.75305 8.82688 4.7536 8.8245L5.72846 9.04733L6.70331 9.27015C6.79566 8.86615 6.75598 8.45274 6.65464 8.10317C6.55322 7.75332 6.36584 7.38383 6.0739 7.09189L5.36679 7.799ZM5.72846 9.04733L4.75427 8.8216L4.42176 10.2566L5.39595 10.4823L6.37014 10.7081L6.70265 9.27306L5.72846 9.04733ZM5.39595 10.4823L4.42344 10.2495C4.35434 10.5381 4.32873 10.8128 4.3545 11.0641C4.36733 11.1893 4.39471 11.326 4.44771 11.4621C4.49414 11.5813 4.59124 11.7805 4.79187 11.9446L5.42511 11.1707L6.05835 10.3967C6.14893 10.4708 6.20663 10.5468 6.24077 10.5995C6.27622 10.6542 6.2981 10.7022 6.31136 10.7363C6.33739 10.8031 6.3429 10.8487 6.34406 10.8601C6.34651 10.8839 6.3384 10.8408 6.36846 10.7152L5.39595 10.4823ZM5.42511 11.1707L4.83694 11.9794C5.06876 12.148 5.30998 12.1821 5.43466 12.1908C5.58354 12.2012 5.72446 12.1855 5.84785 12.1597C6.0966 12.1077 6.3523 11.9984 6.60684 11.8424L6.08428 10.9898L5.56172 10.1372C5.4546 10.2029 5.41279 10.2074 5.43842 10.2021C5.45025 10.1996 5.49819 10.1904 5.57398 10.1957C5.61253 10.1984 5.6695 10.2056 5.73807 10.2257C5.80352 10.2449 5.90501 10.2832 6.01328 10.3619L5.42511 11.1707ZM6.08428 10.9898L6.59349 11.8505L7.99349 11.0221L7.48428 10.1615L6.97506 9.30086L5.57507 10.1292L6.08428 10.9898ZM7.48428 10.1615L7.99689 11.0201C8.01092 11.0117 8.07174 10.9865 8.16897 10.9865C8.21281 10.9865 8.25229 10.9919 8.28368 10.9998C8.29895 11.0037 8.31069 11.0077 8.31899 11.0111C8.32732 11.0145 8.33106 11.0167 8.33099 11.0167L8.84929 10.1615L9.36759 9.3063C8.66166 8.87846 7.67584 8.88247 6.97167 9.30288L7.48428 10.1615ZM8.84929 10.1615L8.3385 11.0212L9.73266 11.8495L10.2435 10.9898L10.7542 10.1301L9.36008 9.30179L8.84929 10.1615ZM10.2435 10.9898L9.73703 11.8521C9.98856 11.9998 10.2389 12.1048 10.4802 12.1565C10.5997 12.1821 10.7385 12.1993 10.8863 12.1908C11.0082 12.1838 11.2573 12.1534 11.4966 11.9794L10.9085 11.1707L10.3203 10.3619C10.4327 10.2802 10.5383 10.2415 10.6056 10.2225C10.6761 10.2027 10.734 10.1963 10.772 10.1941C10.8465 10.1898 10.892 10.1993 10.8992 10.2009C10.9159 10.2045 10.8658 10.1957 10.7499 10.1275L10.2435 10.9898ZM10.9085 11.1707L11.4966 11.9794C11.7294 11.8101 11.8363 11.59 11.8832 11.4721C11.9387 11.3327 11.9663 11.1932 11.9791 11.0685C12.0048 10.8173 11.9792 10.5419 11.9109 10.2525L10.9376 10.4823L9.96438 10.7121C9.99522 10.8428 9.98708 10.8882 9.98951 10.8645C9.99063 10.8535 9.99635 10.8045 10.0249 10.7328C10.0394 10.6963 10.064 10.6434 10.1048 10.5833C10.1439 10.5257 10.212 10.4407 10.3203 10.3619L10.9085 11.1707ZM10.9376 10.4823L11.9118 10.2566L11.5793 8.8216L10.6051 9.04733L9.63092 9.27306L9.96343 10.7081L10.9376 10.4823ZM10.6051 9.04733L11.5807 8.82749C11.5774 8.81303 11.5717 8.74813 11.5982 8.65579C11.6102 8.6143 11.6256 8.57854 11.641 8.55119C11.6566 8.52333 11.6676 8.51235 11.667 8.51293L10.9668 7.799L10.2666 7.08506C9.70866 7.63224 9.46235 8.52511 9.62958 9.26717L10.6051 9.04733ZM10.9668 7.799L11.6739 8.50611L12.8347 7.34528L12.1276 6.63817L11.4205 5.93106L10.2597 7.09188L10.9668 7.799ZM12.1276 6.63817L12.8347 7.34528C13.0193 7.16066 13.1734 6.95355 13.2739 6.72644C13.3593 6.53364 13.4664 6.18565 13.3388 5.80277L12.3901 6.119L11.4414 6.43523C11.3879 6.27462 11.3943 6.14206 11.4039 6.07092C11.4141 5.99407 11.434 5.94192 11.4451 5.91699C11.4668 5.86778 11.4751 5.87651 11.4205 5.93106L12.1276 6.63817ZM12.3901 6.119L13.3388 5.80277C13.2186 5.44232 12.9497 5.22729 12.765 5.11548C12.553 4.98719 12.3085 4.90529 12.0496 4.85988L11.8768 5.84483L11.704 6.82979C11.7776 6.84271 11.7751 6.85415 11.7294 6.82648C11.7062 6.81247 11.6625 6.78258 11.6126 6.72902C11.5663 6.67934 11.4908 6.58333 11.4414 6.43523L12.3901 6.119ZM11.8768 5.84483L12.0393 4.85813L10.5518 4.61313L10.3893 5.59984L10.2268 6.58654L11.7143 6.83154L11.8768 5.84483ZM10.3893 5.59984L10.5513 4.61305C10.5385 4.61094 10.482 4.59434 10.4113 4.54232C10.3795 4.5189 10.3533 4.49428 10.3339 4.47211C10.3244 4.46131 10.3176 4.45223 10.313 4.44542C10.3083 4.43857 10.3066 4.435 10.3066 4.43518L9.40929 4.8765L8.51194 5.31782C8.83183 5.96826 9.52277 6.47096 10.2273 6.58663L10.3893 5.59984ZM9.40929 4.8765L10.3037 4.42929L9.48121 2.78428L8.58679 3.2315L7.69236 3.67871L8.51486 5.32371L9.40929 4.8765ZM8.58679 3.2315L9.48121 2.78428C9.362 2.54586 9.21217 2.33064 9.02612 2.16117C8.86631 2.01561 8.56922 1.80566 8.16679 1.80566V2.80566V3.80566C7.9994 3.80566 7.87673 3.75857 7.81184 3.72698C7.74209 3.69301 7.69908 3.65773 7.67933 3.63974C7.64057 3.60443 7.65407 3.60213 7.69236 3.67871L8.58679 3.2315Z" fill="#04070E" mask="url(#path-1-inside-1_325_7118)"/>
<mask id="path-3-inside-2_325_7118" fill="white">
<path d="M4.66666 3.354H1.16666C0.92749 3.354 0.729156 3.15567 0.729156 2.9165C0.729156 2.67734 0.92749 2.479 1.16666 2.479H4.66666C4.90582 2.479 5.10416 2.67734 5.10416 2.9165C5.10416 3.15567 4.90582 3.354 4.66666 3.354Z"/>
</mask>
<path d="M4.66666 3.354H1.16666C0.92749 3.354 0.729156 3.15567 0.729156 2.9165C0.729156 2.67734 0.92749 2.479 1.16666 2.479H4.66666C4.90582 2.479 5.10416 2.67734 5.10416 2.9165C5.10416 3.15567 4.90582 3.354 4.66666 3.354Z" fill="#292D32"/>
<path d="M4.66666 3.354V2.354H1.16666V3.354V4.354H4.66666V3.354ZM1.16666 3.354V2.354C1.47977 2.354 1.72916 2.60339 1.72916 2.9165H0.729156H-0.270844C-0.270844 3.70796 0.375205 4.354 1.16666 4.354V3.354ZM0.729156 2.9165H1.72916C1.72916 3.22962 1.47977 3.479 1.16666 3.479V2.479V1.479C0.375205 1.479 -0.270844 2.12505 -0.270844 2.9165H0.729156ZM1.16666 2.479V3.479H4.66666V2.479V1.479H1.16666V2.479ZM4.66666 2.479V3.479C4.35354 3.479 4.10416 3.22962 4.10416 2.9165H5.10416H6.10416C6.10416 2.12505 5.45811 1.479 4.66666 1.479V2.479ZM5.10416 2.9165H4.10416C4.10416 2.60339 4.35354 2.354 4.66666 2.354V3.354V4.354C5.45811 4.354 6.10416 3.70796 6.10416 2.9165H5.10416Z" fill="#04070E" mask="url(#path-3-inside-2_325_7118)"/>
<mask id="path-5-inside-3_325_7118" fill="white">
<path d="M2.91666 11.521H1.16666C0.92749 11.521 0.729156 11.3227 0.729156 11.0835C0.729156 10.8443 0.92749 10.646 1.16666 10.646H2.91666C3.15582 10.646 3.35416 10.8443 3.35416 11.0835C3.35416 11.3227 3.15582 11.521 2.91666 11.521Z"/>
</mask>
<path d="M2.91666 11.521H1.16666C0.92749 11.521 0.729156 11.3227 0.729156 11.0835C0.729156 10.8443 0.92749 10.646 1.16666 10.646H2.91666C3.15582 10.646 3.35416 10.8443 3.35416 11.0835C3.35416 11.3227 3.15582 11.521 2.91666 11.521Z" fill="#292D32"/>
<path d="M2.91666 11.521V10.521H1.16666V11.521V12.521H2.91666V11.521ZM1.16666 11.521V10.521C1.47977 10.521 1.72916 10.7704 1.72916 11.0835H0.729156H-0.270844C-0.270844 11.8749 0.375205 12.521 1.16666 12.521V11.521ZM0.729156 11.0835H1.72916C1.72916 11.3966 1.47977 11.646 1.16666 11.646V10.646V9.646C0.375205 9.646 -0.270844 10.292 -0.270844 11.0835H0.729156ZM1.16666 10.646V11.646H2.91666V10.646V9.646H1.16666V10.646ZM2.91666 10.646V11.646C2.60354 11.646 2.35416 11.3966 2.35416 11.0835H3.35416H4.35416C4.35416 10.292 3.70811 9.646 2.91666 9.646V10.646ZM3.35416 11.0835H2.35416C2.35416 10.7704 2.60354 10.521 2.91666 10.521V11.521V12.521C3.70811 12.521 4.35416 11.8749 4.35416 11.0835H3.35416Z" fill="#04070E" mask="url(#path-5-inside-3_325_7118)"/>
<mask id="path-7-inside-4_325_7118" fill="white">
<path d="M1.74999 7.4375H1.16666C0.92749 7.4375 0.729156 7.23917 0.729156 7C0.729156 6.76083 0.92749 6.5625 1.16666 6.5625H1.74999C1.98916 6.5625 2.18749 6.76083 2.18749 7C2.18749 7.23917 1.98916 7.4375 1.74999 7.4375Z"/>
</mask>
<path d="M1.74999 7.4375H1.16666C0.92749 7.4375 0.729156 7.23917 0.729156 7C0.729156 6.76083 0.92749 6.5625 1.16666 6.5625H1.74999C1.98916 6.5625 2.18749 6.76083 2.18749 7C2.18749 7.23917 1.98916 7.4375 1.74999 7.4375Z" fill="#292D32"/>
<path d="M1.74999 7.4375V6.4375H1.16666V7.4375V8.4375H1.74999V7.4375ZM1.16666 7.4375V6.4375C1.47977 6.4375 1.72916 6.68688 1.72916 7H0.729156H-0.270844C-0.270844 7.79145 0.375205 8.4375 1.16666 8.4375V7.4375ZM0.729156 7H1.72916C1.72916 7.31312 1.47977 7.5625 1.16666 7.5625V6.5625V5.5625C0.375205 5.5625 -0.270844 6.20855 -0.270844 7H0.729156ZM1.16666 6.5625V7.5625H1.74999V6.5625V5.5625H1.16666V6.5625ZM1.74999 6.5625V7.5625C1.43687 7.5625 1.18749 7.31312 1.18749 7H2.18749H3.18749C3.18749 6.20855 2.54144 5.5625 1.74999 5.5625V6.5625ZM2.18749 7H1.18749C1.18749 6.68688 1.43687 6.4375 1.74999 6.4375V7.4375V8.4375C2.54144 8.4375 3.18749 7.79145 3.18749 7H2.18749Z" fill="#04070E" mask="url(#path-7-inside-4_325_7118)"/>
</svg>
