<svg width="25" height="24" viewBox="0 0 25 24" fill="none" xmlns="http://www.w3.org/2000/svg">
<path fill-rule="evenodd" clip-rule="evenodd" d="M18.8088 17.9382C18.822 17.7901 18.7941 17.6412 18.7283 17.5079C18.6625 17.3746 18.5613 17.2621 18.4358 17.1826C18.3363 17.1269 18.224 17.0981 18.11 17.0989C18.0075 17.0997 17.9065 17.1232 17.8141 17.1676C17.693 17.2261 17.5906 17.3175 17.5186 17.4313C17.4466 17.5451 17.4079 17.6768 17.4068 17.8115V19.5051H18.8088V17.9382ZM12.0412 8.18255C11.4859 8.18255 10.9371 8.50881 10.9371 8.94025C10.9371 9.37169 11.4859 9.74302 12.0412 9.74302C12.5964 9.74302 13.0444 9.39315 13.0444 8.96171C13.0444 8.53028 12.5964 8.18255 12.0412 8.18255ZM0 8.8823V9.09694V9.1785C0.0344944 9.4395 0.143973 9.68483 0.315124 9.88469C0.484263 10.0755 0.696749 10.2227 0.934653 10.314L1.12973 10.3955C1.64636 10.6102 2.63032 11.018 2.8897 11.018C3.02537 11.0161 3.1589 10.9839 3.28055 10.9238C3.4022 10.8636 3.50889 10.777 3.59284 10.6703C3.69376 10.5454 3.76356 10.3982 3.79649 10.241C3.8349 10.0716 3.826 9.89484 3.77076 9.73014C3.72431 9.59952 3.65084 9.4802 3.55517 9.37996C3.45949 9.27972 3.34376 9.20083 3.21555 9.14846L2.73107 8.96171L9.43227 6.11767L9.90603 5.90303C11.0958 5.37715 12.0154 4.97147 13.3359 5.56174C14.3821 5.91591 16.2814 6.74873 17.2932 7.24241L18.3351 7.68887C18.856 7.90352 19.3726 8.13533 19.9621 8.37359C20.1508 8.44871 20.363 8.54316 20.5752 8.6376C20.7874 8.73204 20.9825 8.8179 21.2655 8.92952L21.362 8.9703L19.647 9.70438L19.5077 9.76234L19.0468 9.95337C18.7745 10.0714 18.5408 10.1809 18.3608 10.2625C18.2484 10.3208 18.1324 10.3717 18.0135 10.4149C17.9771 10.4149 17.9963 10.387 17.8784 10.3376C17.767 10.3376 14.4614 8.95098 14.0605 8.79C14.0364 8.54861 13.9536 8.3168 13.8195 8.11477C13.6853 7.91274 13.5039 7.74663 13.2909 7.63092C12.9883 7.45832 12.6518 7.3536 12.3048 7.32398C11.9619 7.2897 11.6156 7.32102 11.2844 7.41627C10.5641 7.63092 9.99821 8.14606 9.99821 8.97674C9.99843 9.12239 10.0208 9.26715 10.0647 9.40603C10.204 9.81486 10.4949 10.1545 10.8771 10.3548C11.2407 10.5559 11.6493 10.6615 12.0647 10.6617C12.303 10.6616 12.54 10.6262 12.7679 10.5565C12.8541 10.5256 12.938 10.4883 13.0187 10.4449L15.5311 11.4666C15.2696 11.5804 14.9802 11.7006 14.6736 11.8251L13.9598 12.1277C12.6392 12.6965 12.0154 12.9627 10.4055 12.2565C9.77312 11.9302 5.89088 10.1594 5.26064 10.1594C4.74401 10.1594 4.371 10.3998 4.371 11.121C4.37289 11.2744 4.41096 11.4251 4.48212 11.5609C4.55328 11.6967 4.6555 11.8137 4.78044 11.9023C4.91637 11.9726 5.05591 12.0357 5.19847 12.0912V12.5914C5.18775 13.2353 5.17918 13.9028 5.19847 14.506C5.22868 14.947 5.41135 15.3636 5.7151 15.6844C5.97539 16.0112 6.302 16.279 6.67333 16.47C7.94258 17.0715 9.31637 17.4207 10.7185 17.4981C12.1483 17.5818 12.9694 17.4445 14.4035 17.0152C14.5257 16.9787 14.6179 16.9508 14.6972 16.9229C14.7765 16.895 14.858 16.8671 14.9802 16.8199C15.1273 16.7731 15.2629 16.6958 15.3782 16.5929C15.4934 16.4901 15.5857 16.3641 15.649 16.2231C15.7187 16.0563 15.7359 15.872 15.6983 15.6951C15.6688 15.5499 15.6064 15.4133 15.5161 15.2959C15.4356 15.1883 15.3323 15.0998 15.2138 15.0368C15.0952 14.9737 14.9642 14.9376 14.8301 14.931C14.5481 14.9336 14.2698 14.9958 14.0134 15.1134C13.9233 15.1456 13.8269 15.1843 13.7604 15.2057C13.4985 15.2923 13.2295 15.3555 12.9565 15.3946C12.5106 15.4762 12.0519 15.5298 11.6553 15.562C10.8964 15.6264 9.97248 15.4934 8.75915 15.1714C7.90167 14.946 7.1771 14.6477 6.922 14.2935C6.87845 13.8096 6.86985 13.3233 6.89628 12.8382C7.64443 13.1451 8.55336 13.5465 8.70985 13.6152C8.82132 13.6646 8.92421 13.7118 9.04855 13.7612C9.17288 13.8105 9.26292 13.8513 9.39369 13.9028L9.74954 14.0574C9.82457 14.0896 9.8996 14.1239 10.0411 14.1819C10.6818 14.4605 11.3732 14.603 12.0717 14.6004C12.7702 14.5978 13.4605 14.4502 14.0991 14.1668L17.1882 12.8532V16.1909L17.1196 16.2425C16.9564 16.3655 16.8157 16.5158 16.7037 16.6868C16.3843 17.1976 16.41 18.3696 16.4272 19.1595C16.4272 19.2561 16.4272 19.3419 16.4272 19.5566C16.42 19.8164 16.495 20.0718 16.6415 20.2864C16.7274 20.408 16.842 20.5064 16.9752 20.5727C17.1084 20.639 17.256 20.6712 17.4047 20.6663H18.9224C19.1504 20.6479 19.3638 20.5471 19.5231 20.3829C19.6825 20.2186 19.7767 20.002 19.7885 19.7734V17.5046C19.7956 17.1375 19.663 16.7815 19.4176 16.5086C19.3181 16.3949 19.2043 16.2946 19.0789 16.2103V12.0462C19.722 11.7972 20.7424 11.355 21.437 11.0566L22.0672 10.7862C22.2537 10.7089 22.3866 10.6553 22.5153 10.608C23.4563 10.2431 24.0716 10.007 24.0716 8.9424C24.071 8.7063 24.0081 8.47455 23.8894 8.27056C23.7734 8.06044 23.6069 7.88264 23.4049 7.75326L23.3192 7.70604C20.5538 6.53623 17.7927 5.36642 15.0273 4.18158C13.3402 3.46037 12.0047 2.87868 9.88459 3.83171C8.93708 4.261 7.84379 4.72677 6.74836 5.19041C5.65294 5.65404 4.54464 6.11338 3.54782 6.5255L0.728856 7.7318L0.61524 7.79619C0.452815 7.91457 0.316379 8.06507 0.21437 8.23836C0.111514 8.4114 0.0444461 8.60337 0.01715 8.80288L0 8.8823Z" fill="#04070E"/>
</svg>
