<svg width="14" height="14" viewBox="0 0 14 14" fill="none" xmlns="http://www.w3.org/2000/svg">
<path d="M3.00418 1.12952C3.01122 1.12952 3.02041 1.13207 3.02957 1.14124C3.03873 1.1504 3.04129 1.15959 3.04129 1.16663V12.8336C3.04121 12.8406 3.03859 12.85 3.02957 12.859C3.02046 12.868 3.01117 12.8707 3.00418 12.8707C2.99719 12.8707 2.9879 12.868 2.97879 12.859C2.96977 12.85 2.96716 12.8406 2.96707 12.8336V1.16663C2.96707 1.15959 2.96963 1.1504 2.97879 1.14124C2.98795 1.13207 2.99715 1.12952 3.00418 1.12952Z" stroke="#04070E" stroke-width="0.8"/>
<path d="M3.00418 2.29626H9.53738C10.1213 2.29626 10.4656 2.41741 10.6663 2.54138C10.8594 2.66078 10.9445 2.7991 10.9856 2.89294H10.9866C11.0242 2.98528 11.0648 3.145 11.011 3.37146C10.9631 3.57296 10.8348 3.85122 10.5247 4.19666L10.3802 4.349L9.68094 5.04919C9.48595 5.24419 9.36587 5.50588 9.345 5.77966L9.34207 5.89685V5.8988C9.35103 6.16765 9.45836 6.42467 9.65848 6.61267V6.61365L10.3802 7.32849V7.32947C10.7867 7.73606 10.9414 8.06189 10.9944 8.29041C11.0448 8.50793 11.0106 8.66723 10.9729 8.76599C10.933 8.85786 10.8448 9.00088 10.6468 9.12439C10.4467 9.24913 10.1071 9.37048 9.53738 9.37048H3.00418C2.99715 9.37048 2.98795 9.36793 2.97879 9.35876C2.96963 9.3496 2.96707 9.34041 2.96707 9.33337C2.96707 9.32634 2.96963 9.31714 2.97879 9.30798C2.98795 9.29882 2.99715 9.29626 3.00418 9.29626H9.53738C9.88737 9.29626 10.1719 9.24959 10.3909 9.16736C10.5671 9.10112 10.7553 8.98995 10.8606 8.81091L10.9007 8.72986C10.989 8.50893 10.934 8.26536 10.843 8.06677C10.7456 7.85423 10.5767 7.62144 10.3264 7.37439H10.3255L9.6282 6.67615L9.60867 6.65857L9.53836 6.58923C9.40365 6.44173 9.30836 6.24138 9.27664 6.01013L9.2659 5.89294C9.2547 5.60607 9.35307 5.31765 9.54129 5.0863L9.6282 4.9906L10.3274 4.29041C10.5644 4.0534 10.7361 3.82343 10.8401 3.61365C10.892 3.50894 10.9319 3.39966 10.9505 3.29041C10.9639 3.21111 10.9686 3.1154 10.9466 3.01697L10.9153 2.91833L10.8704 2.83337C10.7532 2.64783 10.5465 2.54444 10.3763 2.48669C10.1557 2.4119 9.8733 2.37048 9.53738 2.37048H3.00418C2.98356 2.37048 2.96707 2.35511 2.96707 2.33337C2.96707 2.32634 2.96963 2.31714 2.97879 2.30798C2.98795 2.29882 2.99715 2.29626 3.00418 2.29626Z" stroke="#04070E" stroke-width="0.8"/>
</svg>
