<svg width="14" height="14" viewBox="0 0 14 14" fill="none" xmlns="http://www.w3.org/2000/svg">
<path d="M11.0273 5.20996L11.0508 5.23242C11.2649 5.71697 11.3852 6.23044 11.4121 6.76367L11.418 6.99414C11.4121 9.434 9.43248 11.4121 7 11.4121C6.38362 11.4121 5.79165 11.2891 5.2373 11.0439C5.21823 11.0347 5.20964 11.0142 5.21582 10.9932C5.22636 10.9742 5.24787 10.9646 5.26953 10.9736V10.9727C5.81485 11.2094 6.39839 11.332 7 11.332C9.39091 11.332 11.3379 9.38505 11.3379 6.99414C11.3379 6.4664 11.2443 5.95221 11.0615 5.46582L10.9775 5.25977L10.9756 5.25586V5.23242C10.9792 5.22349 10.9874 5.21612 10.999 5.20996C11.009 5.20703 11.0186 5.20639 11.0273 5.20996Z" stroke="#04070E" stroke-width="0.8"/>
<path d="M7 2.58789C8.1498 2.58789 9.23378 3.02541 10.0635 3.82227H10.0645C10.0742 3.8317 10.0769 3.84149 10.0771 3.84961L10.0664 3.875C10.0569 3.88485 10.0472 3.88851 10.0391 3.88867L10.0137 3.87695H10.0127C9.19759 3.09394 8.13029 2.66211 7 2.66211C4.60909 2.66211 2.66211 4.60909 2.66211 7C2.66211 8.05422 3.04155 9.05835 3.72949 9.84668L3.87109 10.001V10.002C3.87959 10.0107 3.88289 10.0194 3.88281 10.0273C3.88266 10.0353 3.87825 10.0435 3.86914 10.0527C3.85889 10.0607 3.84847 10.0654 3.83789 10.0654C3.83366 10.0654 3.82999 10.0641 3.82617 10.0625L3.80664 10.0479C3.01822 9.21887 2.58789 8.1423 2.58789 7C2.58789 4.56675 4.56675 2.58789 7 2.58789Z" stroke="#04070E" stroke-width="0.8"/>
<path d="M7 2.77079C6.76083 2.77079 6.5625 2.57246 6.5625 2.33329V1.16663C6.5625 0.927459 6.76083 0.729126 7 0.729126C7.23917 0.729126 7.4375 0.927459 7.4375 1.16663V2.33329C7.4375 2.57246 7.23917 2.77079 7 2.77079Z" fill="#04070E"/>
<path d="M2.33332 7.4375H1.16666C0.92749 7.4375 0.729156 7.23917 0.729156 7C0.729156 6.76083 0.92749 6.5625 1.16666 6.5625H2.33332C2.57249 6.5625 2.77082 6.76083 2.77082 7C2.77082 7.23917 2.57249 7.4375 2.33332 7.4375Z" fill="#04070E"/>
<path d="M7 13.2709C6.76083 13.2709 6.5625 13.0726 6.5625 12.8334V11.6667C6.5625 11.4276 6.76083 11.2292 7 11.2292C7.23917 11.2292 7.4375 11.4276 7.4375 11.6667V12.8334C7.4375 13.0726 7.23917 13.2709 7 13.2709Z" fill="#04070E"/>
<path d="M12.8333 7.4375H11.6667C11.4275 7.4375 11.2292 7.23917 11.2292 7C11.2292 6.76083 11.4275 6.5625 11.6667 6.5625H12.8333C13.0725 6.5625 13.2708 6.76083 13.2708 7C13.2708 7.23917 13.0725 7.4375 12.8333 7.4375Z" fill="#04070E"/>
<path d="M5.76333 8.67417C5.6525 8.67417 5.54167 8.63333 5.45417 8.54583C5.04 8.13167 4.8125 7.58333 4.8125 7C4.8125 5.7925 5.7925 4.8125 7 4.8125C7.58333 4.8125 8.13167 5.04 8.54583 5.45417C8.715 5.62333 8.715 5.90333 8.54583 6.0725L6.0725 8.54583C5.985 8.63333 5.87417 8.67417 5.76333 8.67417ZM7 5.6875C6.27667 5.6875 5.6875 6.27667 5.6875 7C5.6875 7.19833 5.73417 7.39083 5.81583 7.56583L7.56583 5.81583C7.39083 5.73417 7.19833 5.6875 7 5.6875Z" fill="#04070E"/>
<path d="M1.16666 13.2708C1.05583 13.2708 0.944996 13.23 0.857496 13.1425C0.68833 12.9733 0.68833 12.6933 0.857496 12.5241L12.5242 0.857466C12.6933 0.688299 12.9733 0.688299 13.1425 0.857466C13.3117 1.02663 13.3117 1.30663 13.1425 1.4758L1.47583 13.1425C1.38833 13.23 1.2775 13.2708 1.16666 13.2708Z" fill="#04070E"/>
</svg>
