<svg width="14" height="14" viewBox="0 0 14 14" fill="none" xmlns="http://www.w3.org/2000/svg">
<path d="M7.09337 6.34091C7.03503 6.33508 6.96503 6.33508 6.90087 6.34091C5.51253 6.29425 4.41003 5.15675 4.41003 3.75675C4.41003 2.32758 5.56503 1.16675 7.00003 1.16675C8.4292 1.16675 9.59003 2.32758 9.59003 3.75675C9.5842 5.15675 8.4817 6.29425 7.09337 6.34091Z" stroke="#04070E" stroke-width="0.8" stroke-linecap="round" stroke-linejoin="round"/>
<path d="M4.17667 8.49325C2.765 9.43825 2.765 10.9783 4.17667 11.9174C5.78084 12.9908 8.41167 12.9908 10.0158 11.9174C11.4275 10.9724 11.4275 9.43242 10.0158 8.49325C8.4175 7.42575 5.78667 7.42575 4.17667 8.49325Z" stroke="#04070E" stroke-width="0.8" stroke-linecap="round" stroke-linejoin="round"/>
</svg>
